<svg version="1.2" xmlns="http://www.w3.org/2000/svg" viewBox="0 0 1500 1000" width="1500" height="1000">
	<title>5433787-ai</title>
	<defs>
		<linearGradient id="g1" x2="1" gradientUnits="userSpaceOnUse" gradientTransform="matrix(-109.229,-50.262,29.675,-64.489,544.104,565.645)">
			<stop offset="0" stop-color="#ffdbc6"/>
			<stop offset=".995" stop-color="#e8b7aa"/>
		</linearGradient>
		<linearGradient id="g2" x2="1" gradientUnits="userSpaceOnUse" gradientTransform="matrix(-147.464,-67.856,149.09,-324.001,646.266,414.225)">
			<stop offset="0" stop-color="#ffdbc6"/>
			<stop offset=".995" stop-color="#e8b7aa"/>
		</linearGradient>
		<linearGradient id="g3" x2="1" gradientUnits="userSpaceOnUse" gradientTransform="matrix(-137.819,-106.104,90.23,-117.201,512.938,574.109)">
			<stop offset="0" stop-color="#ffdbc6"/>
			<stop offset=".995" stop-color="#e8b7aa"/>
		</linearGradient>
		<linearGradient id="g4" x2="1" gradientUnits="userSpaceOnUse" gradientTransform="matrix(-161.31,-124.188,175.119,-227.463,635.185,446.921)">
			<stop offset="0" stop-color="#ffdbc6"/>
			<stop offset=".995" stop-color="#e8b7aa"/>
		</linearGradient>
		<linearGradient id="g5" x2="1" gradientUnits="userSpaceOnUse" gradientTransform="matrix(4.268,23.19,-18.816,3.463,462.819,273.614)">
			<stop offset="0" stop-color="#ebf2f3"/>
			<stop offset="1" stop-color="#ffffff"/>
		</linearGradient>
		<linearGradient id="g6" x2="1" gradientUnits="userSpaceOnUse" gradientTransform="matrix(4.037,21.932,-11.793,2.17,473.493,271.883)">
			<stop offset="0" stop-color="#ebf2f3"/>
			<stop offset="1" stop-color="#ffffff"/>
		</linearGradient>
	</defs>
	<style>
		.s0 { fill: #ab9558 } 
		.s1 { fill: #f3fbff } 
		.s2 { opacity: .2;mix-blend-mode: multiply;fill: #ad9551 } 
		.s3 { fill: #292a2c } 
		.s4 { fill: #000000 } 
		.s5 { fill: #ad9551 } 
		.s6 { fill: #ffffff } 
		.s7 { fill: #fde662 } 
		.s8 { fill: #5889d6 } 
		.s9 { opacity: .2;mix-blend-mode: multiply;fill: #5889d6 } 
		.s10 { fill: #87444d } 
		.s11 { fill: #142827 } 
		.s12 { fill: #32bab6 } 
		.s13 { fill: #5e99d0 } 
		.s14 { fill: #2b529e } 
		.s15 { fill: #3f65ae } 
		.s16 { fill: #d8483d } 
		.s17 { fill: #b2323f } 
		.s18 { fill: #fd958d } 
		.s19 { fill: #ce5555 } 
		.s20 { fill: #fd958c } 
		.s21 { fill: #302665 } 
		.s22 { fill: #e3f6fd } 
		.s23 { fill: #9d906a } 
		.s24 { fill: #dc006e } 
		.s25 { fill: #6db6f2 } 
		.s26 { fill: #e2e3e8 } 
		.s27 { fill: #2c869b } 
		.s28 { fill: #bcbfc9 } 
		.s29 { fill: #37b8bf } 
		.s30 { fill: #41d8d2 } 
		.s31 { fill: #aae8e3 } 
		.s32 { fill: #5789d6 } 
		.s33 { fill: #b1b1b1 } 
		.s34 { fill: #443d89 } 
		.s35 { fill: #ffbba9 } 
		.s36 { fill: url(#g1) } 
		.s37 { fill: url(#g2) } 
		.s38 { fill: url(#g3) } 
		.s39 { fill: url(#g4) } 
		.s40 { fill: #cf3044 } 
		.s41 { fill: #a02438 } 
		.s42 { fill: #f0f3f7 } 
		.s43 { fill: url(#g5) } 
		.s44 { fill: url(#g6) } 
	</style>
	<g id="BACKGROUND">
	</g>
	<g id="OBJECTS">
		<g id="&lt;Group&gt;">
			<g id="&lt;Group&gt;">
				<g id="&lt;Group&gt;">
				</g>
				<path id="&lt;Path&gt;" class="s0" d="m1291.6 567.2l-503.3 292.5c-16.2 9.4-42.7 9.4-59.1 0l-506.5-292.5c-8.3-4.8-12.4-11-12.4-17.2l-0.1 29c0 6.3 4.1 12.5 12.4 17.3l506.5 292.4c16.4 9.5 42.9 9.5 59.2 0l503.2-292.4c8.1-4.7 12.2-10.9 12.2-17.1l0.1-29c0 6.2-4.1 12.3-12.2 17z"/>
				<g id="&lt;Group&gt;">
					<g id="&lt;Group&gt;">
						<path id="&lt;Path&gt;" class="s1" d="m1291.4 533c16.4 9.4 16.5 24.7 0.2 34.2l-503.3 292.5c-16.2 9.4-42.7 9.4-59.1 0l-506.5-292.5c-16.4-9.5-16.5-24.8-0.2-34.2l503.2-292.5c16.3-9.5 42.8-9.5 59.2 0z"/>
					</g>
				</g>
			</g>
		</g>
		<g id="&lt;Group&gt;">
			<g id="&lt;Group&gt;">
				<path id="&lt;Path&gt;" class="s2" d="m1187.3 561.9c0 5.9-4.5 11.7-12.5 16.4-3 1.8-6.3 3.3-10 4.4-7.5 2.6-16.2 4-25.3 4-9.2 0-17.8-1.4-25.4-4-3.6-1.1-7-2.7-10.1-4.4-8-4.6-12.6-10.7-12.7-16.6 0-5.8 4.4-11.7 12.5-16.3 9.3-5.5 21.9-8.4 35.3-8.4 13.5 0 26.1 2.9 35.4 8.4 8.1 4.6 12.8 10.7 12.8 16.5z"/>
				<path id="&lt;Path&gt;" class="s3" d="m1172.3 560.3c0 4.8-3.4 9.6-9.5 13.5q-3.5 2.1-7.6 3.6c-5.8 2.1-12.5 3.3-19.5 3.3-6.9 0-13.6-1.2-19.4-3.3-2.7-1-5.3-2.2-7.6-3.7-6.2-3.7-9.8-8.7-9.8-13.5 0-4.9 3.4-9.7 9.6-13.5 7.1-4.5 16.7-6.9 27-6.9 10.3 0 19.9 2.4 27.1 6.9 6.2 3.8 9.7 8.8 9.7 13.6z"/>
				<path id="&lt;Path&gt;" class="s4" d="m1170.9 558.1c0 4.4-3.3 8.6-9.2 12.1q-3.3 1.9-7.3 3.2c-5.5 1.9-11.9 3-18.7 3-6.7 0-13-1.1-18.6-3-2.7-0.8-5.1-2-7.4-3.2-5.9-3.4-9.3-7.9-9.4-12.2 0-4.3 3.3-8.6 9.2-12 6.9-4 16.1-6.2 26-6.2 9.9 0 19.1 2.2 26 6.2 6 3.4 9.4 7.9 9.4 12.1z"/>
				<path id="&lt;Path&gt;" class="s4" d="m1138.9 555.7c0 3-6.7 3-6.7 0v-184.9h6.7z"/>
				<g id="&lt;Group&gt;">
					<path id="&lt;Path&gt;" class="s5" d="m1163.7 338.3c15.6 9 15.7 23.6 0.2 32.7-15.5 9-40.8 9-56.4 0-15.6-9.1-15.7-23.7-0.2-32.7 15.6-9 40.8-9 56.4 0z"/>
					<path id="&lt;Path&gt;" class="s5" d="m1112.4 299.4l-15.9 50.8h78.2l-15.7-50.1z"/>
				</g>
				<g id="&lt;Group&gt;">
					<path id="&lt;Path&gt;" class="s5" d="m1152.2 292c9.2 5.3 9.3 14 0.1 19.3-9.2 5.3-24 5.3-33.3 0-9.2-5.3-9.3-14-0.1-19.3 9.2-5.3 24.1-5.3 33.3 0z"/>
					<path id="&lt;Path&gt;" class="s6" d="m1156.2 301.7c0 2.5-1.9 5-5.4 7q-1.9 1.2-4.2 1.9c-3.3 1.1-7 1.7-10.9 1.7-3.9 0-7.6-0.6-10.9-1.7q-2.3-0.8-4.3-1.9c-3.5-2-5.4-4.6-5.5-7.1 0-2.5 2-5 5.4-7 4-2.3 9.4-3.6 15.1-3.6 5.8 0 11.2 1.3 15.2 3.6 3.5 2 5.5 4.6 5.5 7.1z"/>
				</g>
				<path id="&lt;Path&gt;" class="s7" d="m1146.6 310.6c-3.3 1.1-7 1.7-10.9 1.7-3.9 0-7.6-0.6-10.9-1.7 0.8-5.3 5.4-9.3 10.9-9.3 5.5 0 10.1 4 10.9 9.3z"/>
			</g>
			<g id="&lt;Group&gt;">
				<g id="&lt;Group&gt;">
					<g id="&lt;Group&gt;">
						<g id="&lt;Group&gt;">
							<path id="&lt;Path&gt;" class="s6" d="m1039.3 289.4l9.3-5.4-1.3 10.5-9.3 5.4z"/>
						</g>
						<g id="&lt;Group&gt;">
							<path id="&lt;Path&gt;" class="s6" d="m991.8 216.9l9.3-5.4 10 4.2-9.3 5.5z"/>
						</g>
						<g id="&lt;Group&gt;">
							<path id="&lt;Path&gt;" class="s6" d="m1053.7 265l-9.3 5.4c-3.1 1.8-7.4 1.6-12.2-1.2l9.4-5.4c4.7 2.8 9 3 12.1 1.2z"/>
						</g>
						<g id="&lt;Group&gt;">
							<path id="&lt;Path&gt;" class="s6" d="m1020.2 228.8l9.3-5.4c-3.7 2.1-5.7 7.2-4.7 14.4 1.1 8.8 6.8 18.7 13.9 24.1q1.4 1.1 2.9 1.9l-9.4 5.4q-1.4-0.8-2.8-1.9c-7.1-5.4-12.8-15.2-13.9-24-1-7.3 1-12.4 4.7-14.5z"/>
						</g>
						<g id="&lt;Group&gt;">
							<path id="&lt;Path&gt;" class="s6" d="m1059.1 284.9l9.3-5.4 5.8 12.1-9.3 5.4z"/>
						</g>
						<g id="&lt;Group&gt;">
							<path id="&lt;Path&gt;" class="s8" d="m999.5 203l9.3-5.4 10.2-5.9-9.3 5.5z"/>
						</g>
						<g id="&lt;Group&gt;">
							<path id="&lt;Path&gt;" class="s6" d="m1009.7 197.2l9.3-5.5 7.8 11.5-9.3 5.4z"/>
						</g>
						<g id="&lt;Group&gt;">
							<path id="&lt;Path&gt;" class="s6" d="m1062.5 278.8l9.3-5.4q-1.3 3.5-3.4 6.1l-9.3 5.4q2.1-2.5 3.4-6.1z"/>
						</g>
						<g id="&lt;Group&gt;">
							<path id="&lt;Path&gt;" class="s6" d="m1017.5 208.6l9.3-5.4q3.7-0.1 7.7 1.2l-9.3 5.4q-4.1-1.3-7.7-1.2z"/>
						</g>
						<g id="&lt;Group&gt;">
							<path id="&lt;Path&gt;" class="s6" d="m1059.8 249.6l9.3-5.5c1.2 3.5 2.2 7 2.7 10.4l-9.3 5.4c-0.5-3.4-1.5-6.9-2.7-10.3z"/>
						</g>
						<g id="&lt;Group&gt;">
							<path id="&lt;Path&gt;" class="s6" d="m1042.1 220.2l9.3-5.4c2.7 2.5 5.2 5.4 7.5 8.4l-9.3 5.4c-2.4-3-4.9-5.8-7.5-8.4z"/>
						</g>
						<g id="&lt;Group&gt;">
							<path id="&lt;Path&gt;" class="s6" d="m1071.7 266.6l9.3-5.4v16.5l-9.4 5.4z"/>
						</g>
						<g id="&lt;Group&gt;">
							<path id="&lt;Path&gt;" class="s6" d="m1062.5 259.9l9.3-5.4 9.2 6.7-9.3 5.4z"/>
						</g>
						<g id="&lt;Group&gt;">
							<path id="&lt;Path&gt;" class="s6" d="m1026.5 200.1l9.3-5.4 14.3 8.3-9.3 5.4z"/>
						</g>
						<g id="&lt;Group&gt;">
							<path id="&lt;Path&gt;" class="s6" d="m1040.8 208.4l9.3-5.4 1.3 11.8-9.3 5.4z"/>
						</g>
						<g id="&lt;Group&gt;">
							<path id="&lt;Path&gt;" class="s6" d="m1065.9 244l9.3-5.4-6.1 5.5-9.3 5.5z"/>
						</g>
						<g id="&lt;Group&gt;">
							<path id="&lt;Path&gt;" class="s6" d="m1049.6 228.6l9.3-5.4 7.2-2.2-9.3 5.4z"/>
						</g>
						<g id="&lt;Group&gt;">
							<g id="&lt;Group&gt;">
								<path id="&lt;Compound Path&gt;" fill-rule="evenodd" class="s6" d="m1072.6 283.1l-10.1-4.3q-1.3 3.6-3.4 6.1l5.8 12.1-10.2 5.8-8.3-12.2q-3.4 0-7.1-1.2l-1.3 10.5-14.4-8.3-1.4-12.9c-2.4-2.3-4.6-4.8-6.7-7.5l-7.8 2.3-10.2-17.5 6.4-5.9q-1.7-4.9-2.6-9.7l-9.6-7 0.1-16.5 10 4.3c0.8-2.5 2-4.6 3.4-6.4l-5.7-11.8 10.2-5.8 7.8 11.4q3.6-0.1 7.7 1.2l1.3-9.7 14.3 8.3 1.3 11.8c2.6 2.6 5.1 5.4 7.5 8.4l7.2-2.2 10.1 17.6-6.1 5.6c1.2 3.4 2.2 6.9 2.7 10.3l9.2 6.7zm-40.4-13.9c10.4 6 18.6 0.1 16.9-13.2-1.1-8.8-6.8-18.7-13.9-24.1q-1.5-1.1-2.9-1.9c-10.4-6-18.6-0.1-16.9 13.2 1.2 8.8 6.8 18.7 13.9 24.1q1.5 1.1 2.9 1.9z"/>
							</g>
						</g>
						<g id="&lt;Group&gt;">
							<path id="&lt;Path&gt;" class="s6" d="m1055.8 226.4l9.3-5.4 10.1 17.6-9.3 5.4z"/>
						</g>
					</g>
				</g>
				<g id="&lt;Group&gt;">
					<g id="&lt;Group&gt;">
						<g id="&lt;Group&gt;">
							<path id="&lt;Path&gt;" class="s6" d="m977.5 187.9l5.2-3-0.7 5.8-5.2 3.1z"/>
						</g>
						<g id="&lt;Group&gt;">
							<path id="&lt;Path&gt;" class="s6" d="m951.1 147.5l5.2-3.1 5.6 2.4-5.2 3z"/>
						</g>
						<g id="&lt;Group&gt;">
							<path id="&lt;Path&gt;" class="s6" d="m985.6 174.3l-5.2 3c-1.7 1-4.1 0.9-6.8-0.6l5.2-3c2.7 1.5 5.1 1.6 6.8 0.6z"/>
						</g>
						<g id="&lt;Group&gt;">
							<path id="&lt;Path&gt;" class="s6" d="m966.9 154.1l5.2-3c-2.1 1.2-3.2 4-2.6 8.1 0.6 4.9 3.8 10.4 7.7 13.4q0.8 0.6 1.6 1.1l-5.2 3q-0.8-0.5-1.6-1.1c-3.9-3-7.1-8.5-7.7-13.4-0.6-4.1 0.6-6.9 2.6-8.1z"/>
						</g>
						<g id="&lt;Group&gt;">
							<path id="&lt;Path&gt;" class="s6" d="m988.6 185.4l5.2-3 3.2 6.7-5.2 3.1z"/>
						</g>
						<g id="&lt;Group&gt;">
							<path id="&lt;Path&gt;" class="s6" d="m955.4 139.7l5.2-3 5.7-3.3-5.2 3.1z"/>
						</g>
						<g id="&lt;Group&gt;">
							<path id="&lt;Path&gt;" class="s6" d="m961.1 136.5l5.2-3.1 4.3 6.4-5.2 3z"/>
						</g>
						<g id="&lt;Group&gt;">
							<path id="&lt;Path&gt;" class="s6" d="m990.5 182l5.2-3q-0.7 2-1.9 3.4l-5.2 3q1.2-1.4 1.9-3.4z"/>
						</g>
						<g id="&lt;Group&gt;">
							<path id="&lt;Path&gt;" class="s6" d="m965.4 142.8l5.2-3q2 0 4.3 0.7l-5.2 3q-2.3-0.7-4.3-0.7z"/>
						</g>
						<g id="&lt;Group&gt;">
							<path id="&lt;Path&gt;" class="s6" d="m989.6 165.7l5.2-3q1 2.9 1.5 5.7l-5.2 3.1c-0.3-1.9-0.9-3.9-1.5-5.8z"/>
						</g>
						<g id="&lt;Group&gt;">
							<path id="&lt;Path&gt;" class="s6" d="m979.1 149.3l5.2-3q2.2 2.1 4.2 4.7l-5.2 3q-2-2.5-4.2-4.7z"/>
						</g>
						<g id="&lt;Group&gt;">
							<path id="&lt;Path&gt;" class="s6" d="m996.2 175.2l5.2-3v9.2l-5.2 3z"/>
						</g>
						<g id="&lt;Group&gt;">
							<path id="&lt;Path&gt;" class="s6" d="m991.1 171.5l5.2-3.1 5.1 3.8-5.2 3z"/>
						</g>
						<g id="&lt;Group&gt;">
							<path id="&lt;Path&gt;" class="s6" d="m970.4 138.1l5.2-3 8 4.6-5.2 3z"/>
						</g>
						<g id="&lt;Group&gt;">
							<path id="&lt;Path&gt;" class="s6" d="m978.4 142.7l5.2-3 0.7 6.6-5.2 3z"/>
						</g>
						<g id="&lt;Group&gt;">
							<path id="&lt;Path&gt;" class="s6" d="m993 162.6l5.1-3-3.3 3.1-5.2 3z"/>
						</g>
						<g id="&lt;Group&gt;">
							<path id="&lt;Path&gt;" class="s6" d="m983.3 154l5.2-3 4-1.2-5.2 3z"/>
						</g>
						<g id="&lt;Group&gt;">
							<g id="&lt;Group&gt;">
								<path id="&lt;Compound Path&gt;" fill-rule="evenodd" class="s6" d="m996.2 184.4l-5.7-2.4q-0.7 2-1.9 3.4l3.2 6.8-5.6 3.2-4.7-6.8q-1.9 0-4-0.7l-0.7 5.9-8-4.7-0.8-7.2c-1.3-1.2-2.5-2.7-3.7-4.2l-4.4 1.4-5.6-9.8 3.5-3.3q-0.9-2.7-1.4-5.4l-5.4-3.9 0.1-9.2 5.6 2.3c0.4-1.3 1.1-2.5 1.8-3.5l-3.1-6.6 5.7-3.2 4.3 6.3q2 0 4.3 0.7l0.7-5.4 8 4.6 0.7 6.6q2.2 2.2 4.2 4.7l4-1.2 5.7 9.8-3.4 3.1c0.6 1.9 1.2 3.9 1.5 5.8l5.1 3.7zm-22.5-7.7c5.7 3.3 10.4 0 9.4-7.4-0.7-4.9-3.8-10.4-7.8-13.5q-0.8-0.6-1.6-1c-5.8-3.4-10.4-0.1-9.4 7.4 0.6 4.9 3.8 10.4 7.7 13.4q0.9 0.6 1.7 1.1z"/>
							</g>
						</g>
						<g id="&lt;Group&gt;">
							<path id="&lt;Path&gt;" class="s6" d="m987.3 152.8l5.2-3 5.6 9.8-5.1 3z"/>
						</g>
					</g>
				</g>
			</g>
			<g id="&lt;Group&gt;">
				<g id="&lt;Group&gt;">
					<g id="&lt;Group&gt;">
						<path id="&lt;Path&gt;" class="s9" d="m720.2 809c-18.6-10.8-18.7-28.2-0.2-38.9 18.5-10.8 48.5-10.8 67.1 0 18.6 10.7 18.7 28.1 0.2 38.9-18.5 10.7-48.5 10.7-67.1 0z"/>
						<path id="&lt;Path&gt;" class="s4" d="m718 754.1c-15.7-9-15.7-23.6-0.2-32.6 15.5-9 40.7-9 56.3 0 15.7 9 15.8 23.6 0.2 32.6-15.5 9.1-40.7 9.1-56.3 0z"/>
						<path id="&lt;Path&gt;" class="s4" d="m769.3 795l15.9-50.7h-78.2l15.7 50.1z"/>
					</g>
					<g id="&lt;Group&gt;">
						<path id="&lt;Path&gt;" class="s4" d="m762.6 783.2c9.3 5.3 9.3 13.9 0.2 19.3-9.2 5.3-24.1 5.3-33.3 0-9.3-5.4-9.3-14-0.2-19.3 9.2-5.3 24.1-5.3 33.3 0z"/>
					</g>
					<path id="&lt;Path&gt;" class="s4" d="m780.2 744.6q-0.8 2.1-2.5 4.1c-1.6 2-3.9 3.9-6.7 5.5-4.4 2.6-9.6 4.3-15.2 5.2-5.1 0.8-10.5 1-15.7 0.5-6.9-0.7-13.5-2.6-18.8-5.7q-2-1.1-3.5-2.4c-2.9-2.2-4.9-4.7-5.9-7.3-1.5-3.6-1.3-7.4 0.7-10.9 1.6-3 4.5-5.8 8.5-8.2q0.4-0.2 0.9-0.4c4.9-2.7 10.9-4.4 17.1-5.1q0.5-0.1 0.9-0.1c4.7-0.5 9.6-0.4 14.4 0.3q1.4 0.2 2.7 0.4c3.1 0.6 6 1.4 8.7 2.5q2.6 1.1 5 2.4c4.1 2.4 6.9 5.2 8.6 8.1 2.1 3.6 2.3 7.5 0.8 11.1z"/>
					<path id="&lt;Path&gt;" class="s10" d="m780.2 744.6c-1.4 3.5-4.5 6.9-9.2 9.6-13.7 8-36 8-49.7 0-4.8-2.8-8-6.2-9.4-9.7 1.4-3.5 4.5-6.9 9.2-9.6 13.7-8 35.9-8 49.7 0 4.8 2.8 8 6.1 9.4 9.7z"/>
					<path id="&lt;Path&gt;" class="s4" d=""/>
				</g>
				<g id="&lt;Group&gt;">
					<path id="&lt;Path&gt;" class="s11" d="m732 752.8c0 0-17.8-31.6-9.5-59.2 8.3-27.5-15.8-36.3-10.6-55.7 5.2-19.4 7.5-17.5 7-27.9-0.4-10.5 12.2-19 19.1 5.4 6.9 24.5-6.9 28 4.5 43.5 11.4 15.5 12.6 26.7 7.6 42.3-5 15.5 17.6 25.9 10.7 53.5z"/>
					<path id="&lt;Path&gt;" class="s11" d="m740.1 731.2c0 0-4.9-27.8 6.8-45.9 11.7-18 3.8-23.3 3.3-33-0.6-9.8 9.6-8.8 11.9-19.7 2.2-11 3.9-20 10.3-18.6 6.4 1.4 14 20 10 28.5-4 8.6-12.4 13.1-9.3 21.4 3.2 8.3 6.4 19.3-2.3 32.1-8.8 12.8-2.9 31-6 37.1-3.1 6-24.7-1.9-24.7-1.9z"/>
					<g id="&lt;Group&gt;">
						<path id="&lt;Path&gt;" class="s11" d="m755.8 759.4c-5.1 0.8-10.5 1-15.7 0.5q-1.2-0.1-2.4-0.3c-6-0.9-11.7-2.7-16.4-5.4q-2-1.1-3.5-2.4c-1.9-4.5-3.8-10.7-5.2-18.2-1.1-6.1-1.8-13.1-1.7-21 0.4-30.8-37.8-43-27-55.3 7.3-8.4 28.9 4.9 40.3 22.6 3.9 6.1 6.6 12.7 7.1 19.2 0.6 8 3.9 13.9 7.8 19.5q0.4 0.6 0.9 1.2c3.1 4.3 6.7 8.5 9.6 13.4q0.3 0.5 0.6 0.9c3.1 5.5 5.5 11.9 5.7 20.3q0.1 2.4-0.1 5z"/>
						<path id="&lt;Path&gt;" class="s12" d="m740.1 759.9q-1.2-0.1-2.4-0.3c-3.5-6.4-11.5-23.3-15.2-47.8-4.6-30.7-27.8-45.2-28.1-45.4-0.4-0.2-0.6-0.9-0.3-1.3 0.3-0.5 0.9-0.6 1.4-0.4 0.2 0.2 24.2 15.1 29 46.8 3.9 26.2 12.9 43.5 15.6 48.4z"/>
					</g>
					<g id="&lt;Group&gt;">
						<path id="&lt;Path&gt;" class="s11" d="m812.3 669.9c-6.9 24.7-25.6 19.7-29.4 26.6-3.8 6.9 8.9 9.4 3 23.7-2.2 5.4-4.7 9.5-6.5 13.3-2.4 5.1-3.7 9.5-1.7 15.2-1.6 2-3.9 3.9-6.7 5.5-3.5 2-7.5 3.5-11.8 4.5q-1 0.3-2.1 0.5-0.6 0.1-1.3 0.2c-5.1 0.8-10.5 1-15.7 0.5 0.1-1.9 0.3-4.1 0.7-6.5 1-5.6 3.4-12.3 8.3-19.5q0.2-0.4 0.5-0.7c2.8-3.9 4.8-7.3 6.3-10.2q0.7-1.3 1.2-2.5c4.3-9.4 2.2-14.4 0.1-23.3-2.7-11.5 0.2-20.9 18.5-24.8q1.5-0.4 3.1-0.6c21.2-3.6 17.3-27.6 22.4-32.3 6.3-6 18 5.7 11.1 30.4z"/>
						<path id="&lt;Path&gt;" class="s12" d="m806.9 651c-0.1 0.9-2.8 22-18.6 30.7q-3 1.6-5.5 3c-12 6.5-14.8 8.2-12.3 14 3.6 8.3 4.2 13.5-4.3 32.4-5.9 13.2-7 23-7 27.6q-1 0.3-2.1 0.5c0.1-4.7 1-15 7.3-28.9 8.6-19.1 7.4-23.5 4.3-30.8-3.3-7.7 1.8-10.5 13.1-16.6q2.6-1.3 5.6-3c14.8-8.2 17.5-28.9 17.5-29.2 0.1-0.5 0.6-0.9 1.1-0.8 0.6 0 1 0.5 0.9 1.1z"/>
					</g>
				</g>
			</g>
		</g>
		<g id="&lt;Group&gt;">
			<path id="&lt;Path&gt;" class="s2" d="m634.2 532l76.5-4.5c0 0 26 80.1 157.4 60.5l-0.3 78.9 14.3 8.2h42.7l158.6-93.4-9.5-91.8-165.4-112.7-170.5 44.2z"/>
			<g id="&lt;Group&gt;">
				<g id="&lt;Group&gt;">
					<path id="&lt;Path&gt;" class="s4" d="m827.1 499.7l-0.7-0.1c-2.6-0.5-4.3-3-3.8-5.6l19.5-104.6 10.1 1.9-19.5 104.6c-0.5 2.6-3 4.3-5.6 3.8z"/>
					<path id="&lt;Path&gt;" class="s4" d="m907.4 539.7h-0.6c-2.6 0-4.8-2.1-4.8-4.8v-106.3h10.2v106.3c0 2.7-2.1 4.8-4.8 4.8z"/>
					<path id="&lt;Path&gt;" class="s6" d="m990.9 514l-0.6 0.1c-2.6 0.3-5-1.6-5.3-4.2l-13.3-105.5 10.1-1.3 13.3 105.5c0.3 2.7-1.5 5.1-4.2 5.4z"/>
					<path id="&lt;Path&gt;" class="s6" d="m916.4 243.6l7.8-4.1c1.8-0.9 3.9-0.8 5.6 0.2l80.6 47.7c2 1.1 2.9 3.4 2.4 5.6l-26.8 114c-1.2 4.9-4.3 9.2-8.8 11.6l-68.1 38c-2.2 1.3-4.9 1.2-7.1-0.1l-72.5-43c-2.7-1.6-4.3-4.5-4.3-7.7v-10.1l73.9-25.9z"/>
					<path id="&lt;Path&gt;" class="s6" d="m825.2 395.3l63-37.1 28.2-114.6 85.3 50-25.2 109.6-70 38.9z"/>
				</g>
				<path id="&lt;Path&gt;" class="s6" d="m910.6 281.5c0 0 42.8 26.3 54.6 75.2 2.5 10.3-1.2 29.6-10.6 42.3-9.4 12.8-30.2 26.4-30.2 26.4l-37.3-30.6z"/>
				<g id="&lt;Group&gt;">
					<path id="&lt;Path&gt;" class="s13" d="m777.3 497.3c0 0-9.9 12.6-21.7 20.8-11.7 8.3-8.9 18.1 3.6 19.1 9.6 0.8 16.4-1.9 24.5-9.1 8.1-7.3 11.8-6.7 13.9-9.8 2.1-3-0.2-16.1-0.2-16.1z"/>
					<path id="&lt;Path&gt;" class="s13" d="m829.9 533.1c0 0-4.4 8.1-15.2 18-10.8 9.9-12.2 16.3-3.5 21.2 8.6 4.9 22.5 1 29.9-7.5 7.4-8.4 10.9-10.7 14-12.8 3.2-2.1 0-17.2 0-17.2z"/>
					<path id="&lt;Path&gt;" class="s14" d="m859.9 374.7c0 0-43.1 14.4-56.7 24.6-13.6 10.1-28.5 97-28.5 97-2.9 7.6 22.5 17.4 25.4 9.8l30.5-77.5 67.1-32z"/>
					<path id="&lt;Path&gt;" class="s15" d="m888.3 383.9c0 0-33.9 26.1-44.9 42-11 15.8-15.3 105.9-15.3 105.9-2.2 12.3 26.9 17.5 29.9 7l22.2-93.8c0 0 53.4-23.3 55.5-51.8z"/>
					<path id="&lt;Path&gt;" class="s16" d="m869.5 279.7c0 0-7.3 2.9-12 16.9-4.7 13.9-14.1 38.1-14.1 38.1l19 11.5 22.4-36.1z"/>
					<path id="&lt;Path&gt;" class="s16" d="m935.7 393.2c0 0-11 5.6-25.7 5.4-7.2-0.1-15.3-1.5-23.4-5.7-11.9-6.2-18.5-10.6-22.2-13.6-4-3.2-4.5-4.6-4.5-4.6l4.5-29.5c0 0-4.4-44.3-0.8-56.6 3-10.3 17.2-19.1 36.4-14.2 0 0 4.5 0.4 11.1 5.3 7.1 5.5 16.5 15.9 21.6 23.6 10.7 16.3 3 89.9 3 89.9z"/>
					<path id="&lt;Path&gt;" class="s17" d="m915.6 385.5l17.2-8.3c-1.2 11.6-14.9 18.4-22.8 21.4-7.2-0.1-15.3-1.5-23.4-5.7-11.9-6.2-18.5-10.6-22.2-13.6 1.7-2.5 4.2-4.8 8-6.8 16.3-8.2 23.2-12.7 23.2-12.7 0 0-28.1-11.6-27.1-13.6 1-2 30.6 8.7 30.6 8.7 4.6-15.4 11.2-28.8 17.3-38.2 0 0 18.8-11.3 20.2-0.6 1.5 10.7-2.8 37.8-5.1 49-2.3 10.8-15.1 19.8-15.9 20.4z"/>
					<path id="&lt;Path&gt;" class="s18" d="m907.7 281.1c-1.3 4.5-13 18.4-22.2 17.4-1.3-0.1-2.4-0.5-3.3-1.1q-0.1 0-0.1 0c-5.5-3.3-4.1-13-4.1-13l6.3-3.5c0 0 13.2-20.4 15.6-19q0.3 0.2 0.4 0.8 0 0.1 0 0.3c0 1.2 0.2 2.5 0.5 3.9 1.8 6.5 6.9 14.2 6.9 14.2z"/>
					<path id="&lt;Path&gt;" class="s19" d="m900.8 266.9v0.1c-0.1 22.9-18.1 30.2-18.6 30.4q-0.1 0-0.1 0c-5.5-3.3-4.1-13-4.1-13l6.3-3.5c0 0 13.2-20.4 15.6-19q0.2 0.3 0.4 0.8c0.3 1 0.5 2.4 0.5 4.2z"/>
					<path id="&lt;Path&gt;" class="s20" d="m860.1 255.7c-1.9-9 1.6-13 1.9-13.3 12.7-10.8 30.8-0.6 31.9 0.2 0.9 0.7 4.3 7.9 5.7 11.6 1-2.1 2.3-2.8 3.6-2.6 2 0.2 3.2 1.4 3.3 4.7 0.1 3.3-0.8 9.5-4 11.1-0.7 0.3-1.3 0-1.7-0.4 0.5 7.3-9.9 21-22.8 19.6-9-1-16-22-17.9-30.9z"/>
					<path id="&lt;Path&gt;" class="s21" d="m877.5 220.6c20.2-5.7 22.9 7.1 22.9 7.1 0 0 7.7-0.2 8.1 19.9 0.1 5.8-1.4 9-2.1 11.2 0.1-0.9 0.1-1.8 0.1-2.5-0.1-3.3-1.3-4.5-3.3-4.7-1.7-0.2-3.5 1-4.4 5.1-1.5 2.4-1.3 6.7-1.3 6.7 0 0-0.6 0.3-1.3-0.4-0.7-0.7-2.5-3.4-3-4.9-0.3-0.8-0.7-0.3-3.3-2.7-2.5-2.4-3.3-6.1-4.1-7.2-4.3 5.3-21.5 10.7-25.4 2.2-0.6 2.7 1.2 10.8 1.1 11.2-0.1-0.3-4.2-3.8-4.5-12.3 0 0-2.2-7.7 1.1-14 4.3-8.2 14.7-13.4 19.4-14.7z"/>
					<path id="&lt;Path&gt;" class="s22" d="m904.3 274.8c0 0-0.5 17.6-22.2 22.6l7.5 10.9c0 0 17.7-12.1 21.5-28.6z"/>
					<path id="&lt;Path&gt;" class="s22" d="m881.6 297.1l-9.1 5.5c0 0-3.4-10.3 1.2-18.2 0 0 2.2 1.8 4.3 1.9 0 0-0.5 7.5 3.6 10.8z"/>
				</g>
			</g>
			<g id="&lt;Group&gt;">
				<g id="&lt;Group&gt;">
					<g id="&lt;Group&gt;">
						<g id="&lt;Group&gt;">
							<path id="&lt;Path&gt;" class="s6" d="m634.7 405.4l101.7-59.6-0.5 126.7-101.7 59.5z"/>
						</g>
						<g id="&lt;Group&gt;">
							<path id="&lt;Path&gt;" class="s5" d="m882.6 531.2l101.7-59.6-0.5 144-101.7 59.5z"/>
						</g>
						<g id="&lt;Group&gt;">
							<path id="&lt;Path&gt;" class="s5" d="m620.4 379.8l101.7-59.5 262.2 151.3-101.7 59.6z"/>
						</g>
						<g id="&lt;Group&gt;">
							<path id="&lt;Path&gt;" class="s5" d="m882.6 531.2l-0.5 143.9-14.3-8.2 0.4-126.7-233.5-134.8-0.5 126.6-14.3-8.2 0.5-144z"/>
						</g>
					</g>
				</g>
				<g id="&lt;Group&gt;">
					<path id="&lt;Path&gt;" class="s23" d="m607.3 362.4l114.8-67.2 275.3 158.9-114.8 67.2z"/>
					<g id="&lt;Group&gt;">
						<path id="&lt;Path&gt;" class="s9" d="m812.8 431.1l8.1 0.4 44.2-22.2 39-9.6-63.3-36.6-34.4 11.6-6.9 36.7z"/>
						<path id="&lt;Path&gt;" class="s9" d="m682 370.2h21.3l47.7-27.4-25-13.9-27.6 15.2z"/>
						<path id="&lt;Path&gt;" class="s9" d="m938.6 461.6l7.9-4.6c5.4-3.2 5.6-10.9 0.3-14.3l-7.4-4.6z"/>
					</g>
					<path id="&lt;Path&gt;" class="s23" d="m882.6 538.8v-17.5l-275.3-158.9v17.4z"/>
					<path id="&lt;Path&gt;" class="s23" d="m997.4 454.1v17.5l-114.8 67.2v-17.5l114.8-68.5"/>
				</g>
			</g>
			<g id="&lt;Group&gt;">
				<g id="&lt;Group&gt;">
					<path id="&lt;Path&gt;" class="s24" d="m811.8 431.1l49.8-27.7-64.9-37.6-46 29.8z"/>
					<path id="&lt;Path&gt;" class="s8" d="m814.5 425.4l45.2-25 1.9 3-46 25.5z"/>
					<g id="&lt;Group&gt;">
						<path id="&lt;Path&gt;" class="s6" d="m859.7 400.4l-61.7-36.1-23.3 13.6 39.8 47.5z"/>
					</g>
					<path id="&lt;Path&gt;" class="s25" d="m810.3 420l26.7-13.6-48.7-29.2-3.2 13.3z"/>
				</g>
				<g id="&lt;Group&gt;">
					<path id="&lt;Path&gt;" class="s9" d="m830.3 452.6l49.5-29 39.2 22.4-49.5 29z"/>
					<path id="&lt;Path&gt;" class="s9" d="m834.3 457.1l43.1-32.4 39.1 22.4-43.1 32.5z"/>
					<path id="&lt;Path&gt;" class="s26" d="m829.9 450.1l49.5-29 39.1 22.4-49.5 29.1z"/>
					<path id="&lt;Path&gt;" class="s6" d="m833.6 455l43-32.4 39.2 22.4-43.1 32.5z"/>
				</g>
				<g id="&lt;Group&gt;">
					<path id="&lt;Path&gt;" class="s27" d="m672.5 365.2v-54.9l9-6.1 22.6 27.7 11.1-5.9v14.9z"/>
					<path id="&lt;Path&gt;" class="s27" d="m723.7 345.8l-8.5-4.1v-15.7l8.5 5z"/>
					<path id="&lt;Path&gt;" class="s28" d="m715 281.5l-37.5 21.4v60.8l37.5-21.4z"/>
					<path id="&lt;Path&gt;" class="s26" d="m717.8 283l-37.5 21.4v60.8l37.5-21.3z"/>
					<path id="&lt;Path&gt;" class="s6" d="m720.4 284.5l-37.5 21.4v60.8l37.5-21.4z"/>
					<path id="&lt;Path&gt;" class="s29" d="m672.5 310.2l8.5 4.9v55.1l-8.5-4.8z"/>
					<path id="&lt;Path&gt;" class="s30" d="m681 370.2v-54.9l9-6.1 22.5 27.7 11.2-5.9v14.8z"/>
				</g>
				<g id="&lt;Group&gt;">
					<path id="&lt;Path&gt;" class="s30" d="m921.5 435.9v21.2c0 3.1 4.5 5.6 10.1 5.6 5.6 0 10.1-2.5 10.1-5.6v-21.2z"/>
					<path id="&lt;Path&gt;" class="s31" d="m941.7 435.9c0 3.1-4.5 5.7-10.1 5.7-5.6 0-10.1-2.6-10.1-5.7 0-3.1 4.5-5.6 10.1-5.6 5.6 0 10.1 2.5 10.1 5.6z"/>
					<path id="&lt;Path&gt;" class="s27" d="m940.4 435.9c0 1.7-2 3.2-4.7 4q-1 0.3-2 0.4-0.3 0-0.5 0-0.8 0.1-1.6 0.1h-0.2q-1.1 0-2.1-0.2c-0.3 0-0.6 0-0.9-0.1q-1.4-0.3-2.5-0.8c-1.9-0.8-3.1-2-3.1-3.4 0-0.9 0.6-1.7 1.5-2.4q0.8-0.6 2-1.1c0.8-0.3 1.7-0.6 2.6-0.7q1.1-0.2 2.3-0.2h0.4q0.6 0 1.2 0 1.1 0.1 2.2 0.3 0.3 0.1 0.7 0.2c0.8 0.2 1.5 0.5 2.1 0.8 1.5 0.8 2.6 1.9 2.6 3.1z"/>
					<path id="&lt;Path&gt;" class="s15" d="m940.8 422.5q0 0.2 0 0.3l-3 10-2.1 7.1q-1 0.3-2 0.4-0.3 0-0.5 0l0.9-3 1.6-5.3 2.9-9.8c0.2-0.6 0.8-0.9 1.4-0.8 0.5 0.2 0.8 0.6 0.8 1.1z"/>
					<path id="&lt;Path&gt;" class="s15" d="m931.5 440.4h-0.1q-1.1 0-2.1-0.2l-0.4-8.5-0.4-12.7c-0.1-0.6 0.4-1.2 1-1.2q0.1 0 0.1 0c0.6 0 1.1 0.5 1.1 1.1l0.5 12.6 0.3 8.4z"/>
					<path id="&lt;Path&gt;" class="s8" d="m928.4 440.1q-1.4-0.3-2.5-0.8l-1.6-5.8-3.1-11.6c-0.2-0.6 0.2-1.2 0.7-1.3q0.2-0.1 0.3-0.1c0.5 0 1 0.3 1.1 0.9l3 11z"/>
					<path id="&lt;Path&gt;" class="s32" d="m935.7 427q0 0.1 0 0.2l-0.7 4.6-0.9 5.5-0.4 3q-0.3 0-0.5 0-0.8 0.1-1.6 0.1h-0.2l0.1-0.5 1.3-8.4 0.7-4.7c0.1-0.6 0.6-1 1.3-0.9 0.5 0.1 0.9 0.5 0.9 1.1z"/>
				</g>
				<g id="&lt;Group&gt;">
					<path id="&lt;Path&gt;" class="s16" d="m860.7 385.6l42-26.7c0 0 11.4-45.2 18.8-49.7 7.5-4.6 14.6-5.7 15.1 6.9 0.3 6.6-1.3 15.6-5.2 29.7-2.9 10.3-5.1 20.7-8.4 25.6-5.5 7.9-52.6 30.5-52.6 30.5-6 3.6-15.7-12.7-9.7-16.3z"/>
					<path id="&lt;Path&gt;" class="s18" d="m860.6 389.2l-6.8 3.1c0 0-6.3 0-10 0-3.6 0-6 1.2-9.1 5.5-3 4.4-5.6 7.2-3.2 9.6 2.3 2.3 4.6 2.2 8.4 1.2 3.8-0.9 8.1-4 8.1-4 0 0 2.7 0.6 6.9 0 4.3-0.5 4.7-2.3 4.7-2.3l6.6-2.5c3.3-2.7-2.3-13.3-5.6-10.6z"/>
				</g>
				<g id="&lt;Group&gt;">
					<path id="&lt;Path&gt;" class="s16" d="m843.4 334.7l-33.5 30.3c-5.7 4.8 3 17.1 12 12.9 0 0 30.2-15.5 40.5-31.7l2.1-3.4z"/>
					<path id="&lt;Path&gt;" class="s17" d="m864.5 342.8c0 0-3.7-30.6-3.3-40.2 0.4-9.6 1.6-11.1 1.6-11.1 0 0-2.4 5.1-3.3 14.5-0.8 9.5 2.9 40.2 2.9 40.2z"/>
					<path id="&lt;Path&gt;" class="s20" d="m811.1 367.4l-6.3 4.1c0 0-6.2 1-9.8 1.5-3.6 0.6-5.8 2.2-8.2 7-2.3 4.7-4.4 7.9-1.7 9.9 2.7 1.9 4.9 1.4 8.6-0.1 3.6-1.5 7.3-5.2 7.3-5.2 0 0 2.8 0.1 6.9-1.1 4.1-1.2 4.2-3.1 4.2-3.1l6.1-3.5c2.9-3.2-4.3-12.7-7.1-9.5z"/>
				</g>
				<g id="&lt;Group&gt;">
					<path id="&lt;Path&gt;" class="s33" d="m815.6 428.9l-3.8 2.2-58.5-33.3c-2-1.2-3.5-3.1-4.2-5.3l-13.7-44 1.1-1.2c1-0.9 2.4-1.1 3.6-0.4l58.9 33.6c1.1 0.7 2 1.8 2.4 3z"/>
					<path id="&lt;Path&gt;" class="s33" d="m811.8 431.1l-58.5-33.3c-2-1.2-3.5-3.1-4.2-5.3l-13.7-44 59.9 34c1.1 0.6 2 1.7 2.4 3z"/>
				</g>
			</g>
		</g>
		<g id="&lt;Group&gt;">
			<path id="&lt;Path&gt;" class="s34" d="m481 217.1c0 0-8 0-15.2 6.8-6.1 5.8-8.6 15.1-6.8 23 1.7 7.8-5.8 7.2-6.2 20.1-0.4 13 5.9 13.4-0.8 18.6-7.5 5.8-1.8 15.6-1.8 15.6l59.4-16.5c0 0 3.9-4 2.3-13-1.5-9-7.6-11.5-6-19.3 1.7-7.8-0.4-19.5-0.4-19.5z"/>
			<path id="&lt;Path&gt;" class="s9" d="m403.5 580.6c0 25.1 36.8 45.5 82 45.5 45.3 0 82.1-20.4 82.1-45.5 0-25.1-36.8-45.5-82.1-45.5-45.2 0-82 20.4-82 45.5z"/>
			<g id="&lt;Group&gt;">
				<path id="&lt;Path&gt;" class="s26" d="m506.5 277.9c0 0 6.7-0.2 11.1 8.4 4.5 8.6 17.4 27.3 17.4 27.3l11.9-32.1c1.4-4.4 16.3 0.5 14.9 4.9 0 0-11.8 51.3-19.3 56.8-7.4 5.5-34.3-21.1-32.9-19.4 1.3 1.7-3.1-45.9-3.1-45.9z"/>
				<path id="&lt;Path&gt;" class="s35" d="m549 281.3l2-4.4c0 0-1.5-5.9-1.3-10.1 0.3-4.1 0.1-9.5 1.3-8.7 1.2 0.8 1.7 6.6 2.4 7.6 0.8 1.1 8.1-2.4 9.1-7.1 1-4.7 1.2-8.1 2.9-5.5 1.7 2.6 5 10.5 2.7 16.5-2.4 6.1-7.4 9.9-7.6 10.9-0.2 1-1 4.4-1 4.4-1 2.9-11.5-0.7-10.5-3.6z"/>
			</g>
			<g id="&lt;Group&gt;">
				<g id="&lt;Group&gt;">
					<g id="&lt;Group&gt;">
						<path id="&lt;Path&gt;" class="s21" d="m487.4 582.4l2.1-1 2-15.2-4.6-1.8z"/>
						<path id="&lt;Path&gt;" class="s21" d="m485.5 581.5l1.9 0.9 1.2-15.2c0 0 3.5 1.4 8.2 9.9 4.7 8.5 15.6 11.8 23 9.4 6.9-2.3 1.9-4.9-5.2-13.4q-0.9-1.1-1.9-2.4c-8-10.3-11.2-17.8-11.2-17.8 0 0-0.4-0.4-1.1-1.2-3.1-2.9-11.3-10-13.1-1.2-2.2 10.8-1.8 31-1.8 31z"/>
						<path id="&lt;Path&gt;" class="s36" d="m492.8 557.7c3.9 1.7 8.1 8.7 11.8 12.9 3.6 4.3 10 2.5 10 2.5q-0.9-1.1-1.9-2.4c-8-10.3-11.2-17.8-11.2-17.8 0 0-0.4-0.4-1.1-1.2-4.3 1.7-10.2 4.8-7.6 6z"/>
						<path id="&lt;Path&gt;" class="s37" d="m514 447c0 0-0.2 13.4-4.4 36.3-4.2 22.9-8.7 59.9-8 70.6 0 7.1-14.2 4.8-14.2-2.3 0 0-1.9-22.2-1.9-45.4 0-23.2 5.1-46.6 5.1-46.6z"/>
					</g>
					<path id="&lt;Path&gt;" class="s14" d="m513.8 361c0 0 11.1 26.8 2.8 87.7-6.2 45-8.3 40.4-13.6 100.2l-16.7-0.6c0 0-5.3-29.9-0.8-62.3 4.5-32.4-5.7-88.7-5.7-88.7 0 0 13.9-33.2 15.7-32.8 1.7 0.4 18.3-3.5 18.3-3.5z"/>
				</g>
				<g id="&lt;Group&gt;">
					<g id="&lt;Group&gt;">
						<path id="&lt;Path&gt;" class="s21" d="m453.8 585.7h2l1.5-9.1c0 0 1 22.1 7 26.6 2.4 1.8 5.4 2.7 8 2.3 3.9-0.6 4.4-3.1 4.7-12.1 0.1-2.2 0-4.5-0.2-6.9-0.9-12.4-4.5-26.1-4.5-26.1 0 0-0.5-0.5-1.2-1.2-2.8-2.4-9.5-7.3-12.6 1.2-3.9 10.9-4.7 25.3-4.7 25.3z"/>
						<path id="&lt;Path&gt;" class="s38" d="m458.5 560.8c0 0 0.7 0.2 1.7 2.2 0.9 1.9 0.7 19 4.4 23.2 7.5 8.4 11.7 0.6 12.2 0.3-0.9-12.4-4.5-26.1-4.5-26.1 0 0-0.5-0.5-1.2-1.2z"/>
						<path id="&lt;Path&gt;" class="s39" d="m486.3 455c0 0-1.5 16.2-10.1 47.2-5.4 19.6-3.9 58.2-3.9 58.2 0 4.3-13.8 4.3-13.8 0 0 0-4.8-17.9-5.6-41.5-0.9-23.6 6-45.3 6.6-59.1z"/>
					</g>
					<path id="&lt;Path&gt;" class="s15" d="m500.7 365.8c0 0-7.9 74.4-15.7 107.7-7.8 33.3-11.5 62.5-11.9 80.8 0 5.2-17.8 5.2-17.8 0 0 0-7.7-40.6-1.9-68.5 5.7-27.9 4-39.9 1.5-65-2.4-25.1 0.3-39.8 11.8-53.1z"/>
				</g>
			</g>
			<g id="&lt;Group&gt;">
				<path id="&lt;Path&gt;" class="s40" d="m447.1 301.7c0 0 2.7 7.6 7.8 16.2q0.9 1.5 1.8 3c6 10 10 46.8 10 46.8 9 2.5 16.5 3.3 22.6 3.1 18-0.5 24.5-9.8 24.5-9.8 0 0-1.8-17.1 1.7-27.9 0.7-2.2 1.6-4.2 2.8-5.7 1.6-1.9 2.8-3.6 3.7-5.2 3-5.8 1.6-10.7-3.7-21.2-6.6-13.4-11.8-23.1-11.8-23.1h-17.1c0 0-7.9-4.4-20.1 3.4-12.2 7.9-22.2 20.4-22.2 20.4z"/>
				<path id="&lt;Path&gt;" class="s41" d="m455 318.2q0.8 1.5 1.8 3c6 10 10 46.8 10 46.8 9 2.5 16.5 3.4 22.6 3.1 14.7-6.7 11-19.2 12.5-29.2 1.2-7.9 8.4-8.1 13.6-8.5 0.7-2.2 1.7-4.2 2.9-5.7 1.6-1.9 2.8-3.6 3.6-5.2-1.8 2.1-5 3-9.1 4.1-5.7 1.6-10.5-1.2-20.5 3.2-10 4.3-17.6-0.7-20.5-7.4-2.9-6.6-9.9-13.3-9.9-13.3z"/>
			</g>
			<g id="&lt;Group&gt;">
				<g id="&lt;Group&gt;">
					<path id="&lt;Path&gt;" class="s35" d="m516.6 341l3.2-1.1c0 0 4.4-3.6 5.4-4.4 1-0.9 18.6-4.5 19.7-3.4 1.1 1.2-3.8 9.5-6.5 12.5-2.6 3.1-11.3 4.2-12.9 4.2-1.6 0-3 0.3-3 0.3l-4.4 1.9z"/>
					<g id="&lt;Group&gt;">
						<path id="&lt;Path&gt;" class="s42" d="m463.3 364.2c8.7 6 55.9-11.1 55.9-11.1 1.4-0.3 1.8-2.5 1.6-5-0.5-3.9-2.5-8.5-4.8-8l-41.3 4.3-4.3-21.7c-4.1-13.2-15.9-21.2-21.3-21.4-1.2-0.1-2 0.2-2.4 0.9-2.4 3.8 8 56 16.6 62z"/>
					</g>
				</g>
			</g>
			<g id="&lt;Group&gt;">
				<path id="&lt;Path&gt;" class="s35" d="m470.9 281.6c6.8 4.8 13.6 9.3 18.6 10.5 0 0 1.9-1.6 2.5-3.9 0.9-3.6-0.1-8.2-0.1-8.2v-4.5l-21-9.5q0 0 0 0.1c1.3 5.4 0.9 10.5 0 15.5z"/>
				<path id="&lt;Path&gt;" class="s18" d="m470.9 266q0 0 0 0.1c0.4 1.3 6.8 23.4 21.1 22.1 0.9-3.6-0.1-8.2-0.1-8.2v-4.5z"/>
				<path id="&lt;Path&gt;" class="s35" d="m505.3 240.9c0 0 0.8 8.7-1.9 22.1-2.8 13.4-5.9 14.8-11.4 14.1-14.8-1.8-21.1-11.1-21.1-11.1 0 0-1.9 0-4.9-3.4-1.3-1.5-2.3-4.2-3-6.2v-18.8z"/>
				<path id="&lt;Path&gt;" class="s43" d="m489.5 292.1l-3.8-0.3-4.5 7c0 0-12.1-9.5-12.9-17 0.6-1.8 1.5-3.5 3.3-5 4.3 6.7 10.3 11.8 17.9 15.3z"/>
				<path id="&lt;Path&gt;" class="s44" d="m489.5 292.1c0 0 3.2-4.5 2.5-15l2.2 0.1c0 0 5.7 5.8 3.7 16.9l-5-3.5z"/>
			</g>
			<path id="&lt;Path&gt;" class="s34" d="m504.9 254.4l0.6-14.3c0 0-4.4 10.6-14.2 10.4-9.8-0.2-9.8-1.1-13.9 4.7-4.1 5.7-12.6 3.3-12.6 3.3 0 0 0.4 6.2 5.9 7.5 0 0-7.6-0.5-9.4-11.2-1.7-10.7-3.3-21.2 3.7-25.9 7.1-4.7 5.7-9.4 13.9-11.5 4.9-1.2 10.9 1.3 15 3.6 4 2.4 11.2 3.6 14.4 11.8 3.2 8.1-0.5 16.5-3.4 21.6z"/>
		</g>
	</g>
</svg>